<svg width="40" height="40" viewBox="0 0 40 40" fill="none" xmlns="http://www.w3.org/2000/svg">
<g clip-path="url(#clip0_614_640)">
<path d="M18.2586 4.18129L17.9493 4.07479C17.3536 3.86968 16.7466 3.69587 16.1309 3.55411C16.3288 2.00781 16.9267 0.272181 18.7823 0.0355049C18.9655 0.0116347 19.15 -0.000226909 19.3349 3.28683e-06C22.1471 3.28683e-06 26.4314 2.65473 28.8435 7.59339C29.9727 9.89893 30.639 11.4459 31.0845 12.4799L31.124 12.5715C31.3597 13.1937 31.648 13.7965 31.9858 14.3741C32.0848 14.5264 32.1936 14.6727 32.3114 14.812C32.2004 15.2752 32.0627 15.7321 31.8991 16.1808C31.792 16.4807 31.6846 16.7647 31.5816 17.0368C31.0219 16.6211 30.5456 16.1119 30.1755 15.5339C29.7582 14.8489 29.4063 14.1295 29.124 13.3841L29.115 13.3632C28.6779 12.3453 28.0194 10.812 26.8891 8.50065C24.9634 4.56392 21.4791 2.13009 19.3514 2.13009C19.2622 2.12397 19.1725 2.12397 19.0833 2.13009C18.7535 2.16955 18.3864 2.60345 18.2586 4.18129Z" fill="#4CC2F1"/>
<path d="M7.71917 9.76181L7.42227 9.89988L7.3728 9.89593C6.80645 10.1598 6.25582 10.4535 5.7234 10.7756C4.72139 9.51331 3.88433 7.88024 5.02653 6.43651C6.25121 4.88628 8.97271 3.92773 12.1313 3.92773C14.0047 3.93471 15.8629 4.25097 17.6237 4.86261C20.1763 5.76199 21.7927 6.40495 22.8605 6.83492C23.4815 7.10995 24.124 7.33811 24.7822 7.51733C24.9688 7.55444 25.1574 7.58209 25.347 7.60017C25.6011 8.00285 25.8337 8.41756 26.044 8.84272C26.1965 9.13857 26.3325 9.41075 26.4563 9.67504C26.2208 9.71548 25.9822 9.7366 25.7429 9.73815C25.2754 9.73303 24.8097 9.68147 24.3534 9.58431C23.5601 9.38891 22.7873 9.12484 22.0441 8.79539L22.0145 8.78353C20.9669 8.36529 19.3857 7.73403 16.9063 6.87831C15.3873 6.34943 13.7849 6.07325 12.1684 6.06177C9.36856 6.06177 7.44702 6.90592 6.78726 7.74217C6.59346 7.99069 6.64293 8.53899 7.71917 9.76181Z" fill="#4CC2F1"/>
<path d="M29.7679 7.47381L29.6401 7.20162V7.20557C29.3661 6.64827 29.0605 6.10574 28.7246 5.58039C29.5534 4.9453 30.539 4.39701 31.5533 4.39701C32.1319 4.39407 32.6945 4.57903 33.1492 4.92163C35.4624 6.66121 36.7325 11.8089 34.7656 17.1737C33.8584 19.6469 33.1985 21.2169 32.7574 22.2543C32.4707 22.8586 32.2348 23.4838 32.0523 24.1241L32.0405 24.1807L32.03 24.2299C31.9962 24.3883 31.9657 24.5317 31.9657 24.6645C31.5522 24.9093 31.1254 25.1331 30.6874 25.335L29.8256 25.7295C29.7298 25.0495 29.7634 24.3586 29.9246 23.6901C30.1307 22.9205 30.4065 22.1694 30.7493 21.4457C30.8007 21.3218 30.8552 21.1913 30.913 21.0531L30.9143 21.0501C31.3417 20.0274 31.9405 18.595 32.7243 16.4597C34.4232 11.805 33.2727 7.67498 31.8254 6.5981C31.7485 6.53894 31.6519 6.50815 31.5533 6.51131C31.0544 6.51131 30.3657 6.98073 29.7679 7.47381Z" fill="#4CC2F1"/>
<path d="M32.3895 28.7945L32.0926 28.9286C33.1689 30.1553 33.2183 30.7037 33.0245 30.9482C32.3648 31.7845 30.4432 32.6326 27.6639 32.6326C26.0392 32.6232 24.4283 32.347 22.9013 31.8161C20.3819 30.9522 18.7944 30.3289 17.7306 29.8989C16.9868 29.5674 16.2123 29.3033 15.4172 29.1101C14.977 29.0169 14.5279 28.968 14.077 28.9641C13.8226 28.9648 13.5687 28.9873 13.3184 29.0312L13.7307 29.8516C13.941 30.2749 14.1751 30.687 14.4317 31.0862C14.6176 31.1022 14.8021 31.1298 14.9842 31.1692C15.6438 31.344 16.2867 31.5724 16.9057 31.8516L16.9612 31.8736C18.0294 32.2998 19.6339 32.9398 22.1426 33.8238C23.9024 34.4277 25.7573 34.7386 27.6268 34.7429C30.369 34.7429 33.5111 33.7805 34.7358 32.2342C35.878 30.7865 35.0409 29.1534 34.0388 27.895C33.5056 28.2169 32.955 28.5118 32.3895 28.7786V28.7945Z" fill="#4CC2F1"/>
<path d="M10.0085 31.1691L10.1611 31.4887L10.1446 31.5006C10.4195 32.0265 10.7192 32.5525 11.0435 33.0783C10.1858 33.7845 9.32404 34.3406 8.30555 34.3406C7.70283 34.3323 7.12106 34.1278 6.65615 33.7607C4.34699 32.0527 3.07284 26.8853 5.03149 21.5325C5.93866 19.0553 6.59841 17.4853 7.04375 16.4479C7.33139 15.8457 7.56586 15.2217 7.74475 14.5821C7.79011 14.3849 7.81484 14.2074 7.83546 14.0457C8.24741 13.7982 8.67272 13.5717 9.10963 13.3671L9.97144 12.9727C10.0672 13.6485 10.0351 14.3353 9.87659 15.0002C9.67182 15.769 9.39583 16.5189 9.05189 17.2407L8.99924 17.3662C8.57043 18.3871 7.93584 19.8982 7.08087 22.2307C5.38199 26.8853 6.53244 31.0154 7.97567 32.0922C8.06935 32.1781 8.19241 32.2286 8.32204 32.2342C8.72614 32.2342 9.37766 31.7175 10.0085 31.1691Z" fill="#4CC2F1"/>
<path d="M4.27337 21.0347C4.28666 20.9983 4.29994 20.9619 4.3137 20.9251C2.66429 20.8265 2.25195 20.6648 2.1901 20.1835C1.95094 18.4164 4.12401 14.7044 8.72582 12.5783C11.1257 11.4699 12.7091 10.8308 13.7565 10.4088C14.5239 10.1326 15.2636 9.79067 15.9666 9.38711C16.5724 9.02167 17.1022 8.55225 17.5295 8.00255L16.6223 7.68304C16.1723 7.52831 15.7139 7.39663 15.2492 7.28857C15.1131 7.39508 14.9606 7.50159 14.775 7.61992C14.1815 7.94815 13.561 8.22916 12.9194 8.46012C11.8514 8.89009 10.2433 9.54489 7.79392 10.6731C2.51172 13.1187 -0.345851 17.6472 0.0335105 20.4676C0.301537 22.4399 2.06226 22.8343 3.6663 22.9881C3.81062 22.4004 3.98381 21.8048 4.18999 21.2447V21.2564C4.22022 21.1803 4.2468 21.1075 4.27337 21.0347Z" fill="#4CC2F1"/>
<path d="M39.7677 18.2469C39.5244 16.4402 37.7554 15.8565 36.1473 15.667C36.0027 16.2703 35.8237 16.8655 35.6112 17.4501L35.504 17.7341C37.1534 17.8603 37.5658 18.2153 37.6152 18.523C37.8502 20.2783 35.6607 23.9902 31.0753 26.1045C28.7618 27.1749 27.2058 27.8075 26.1586 28.2334L26.0488 28.2781C25.2794 28.5526 24.5382 28.8946 23.8345 29.2997C23.2261 29.6631 22.6945 30.1327 22.2676 30.6842L23.1747 31.0038C23.6252 31.1573 24.0836 31.2889 24.5479 31.3982C24.6993 31.2781 24.8576 31.1661 25.0221 31.0629C25.6159 30.7363 26.2364 30.4567 26.8776 30.2266L26.9703 30.189C28.0383 29.7553 29.6276 29.1097 31.999 28.0137C37.2895 25.5957 40.147 21.0435 39.7677 18.2469Z" fill="#4CC2F1"/>
<path d="M21.5454 34.5144L21.8548 34.6209C22.4443 34.8237 23.0445 34.9976 23.6526 35.1416C23.4752 36.684 22.8567 38.4196 21.0011 38.6563C20.8181 38.6816 20.6336 38.6948 20.4486 38.6957C17.657 38.6919 13.3727 36.0371 10.9646 31.1181C9.8059 28.7513 9.13376 27.1736 8.70492 26.14C8.46737 25.5185 8.17921 24.9157 7.84311 24.3373C7.72765 24.1677 7.62045 24.0257 7.52148 23.9073C7.63242 23.4416 7.77008 22.982 7.93383 22.5307C7.99897 22.3509 8.06412 22.1771 8.12742 22.008C8.16828 21.8989 8.20838 21.7919 8.24721 21.6865C8.80562 22.0965 9.27961 22.6021 9.64507 23.1776C10.0607 23.8628 10.4113 24.5823 10.6924 25.3275C10.7266 25.4059 10.762 25.4875 10.7989 25.5724C11.2386 26.5845 11.8805 28.0624 12.9191 30.1951C14.8407 34.1279 18.325 36.5656 20.4527 36.5656C20.542 36.57 20.6315 36.57 20.7207 36.5656C21.0507 36.5263 21.4136 36.0923 21.5454 34.5144Z" fill="#4CC2F1"/>
</g>
<defs>
<clipPath id="clip0_614_640">
<rect width="40" height="40" fill="white"/>
</clipPath>
</defs>
</svg>
